<?xml version="1.0" encoding="UTF-8"?>
<!DOCTYPE svg PUBLIC "-//W3C//DTD SVG 1.1//EN" "http://www.w3.org/Graphics/SVG/1.1/DTD/svg11.dtd">
<!-- Creator: CorelDRAW X6 -->
<svg xmlns="http://www.w3.org/2000/svg" xml:space="preserve" width="41.5158mm" height="22.4552mm" version="1.1" style="shape-rendering:geometricPrecision; text-rendering:geometricPrecision; image-rendering:optimizeQuality; fill-rule:evenodd; clip-rule:evenodd"
viewBox="0 0 4216 2281"
 xmlns:xlink="http://www.w3.org/1999/xlink">
 <defs>
  <style type="text/css">
   <![CDATA[
    .fil3 {fill:#FEFEFE}
    .fil2 {fill:#2CCF73}
    .fil0 {fill:#FEFEFE;fill-rule:nonzero}
    .fil1 {fill:#2CCF73;fill-rule:nonzero}
   ]]>
  </style>
 </defs>
 <g id="Layer_x0020_1">
  <metadata id="CorelCorpID_0Corel-Layer"/>
  <path class="fil0" d="M181 2267l-181 0 0 -365c0,-39 11,-74 32,-104 21,-30 49,-53 84,-69 35,-16 70,-24 107,-24 73,0 127,25 162,75 47,-52 103,-77 168,-77 39,0 76,9 110,28 34,19 62,44 82,75 21,31 31,63 31,96l0 365 -181 0 0 -339c0,-15 -6,-27 -18,-37 -12,-9 -26,-14 -43,-14 -16,0 -30,5 -40,16 -10,11 -15,28 -15,51l0 323 -181 0 0 -330c0,-19 -6,-34 -17,-45 -11,-11 -25,-17 -41,-17 -16,0 -29,6 -41,18 -11,12 -17,27 -17,47l0 328z"/>
  <path id="1" class="fil0" d="M1184 2281c-41,-2 -79,-12 -113,-29 -34,-17 -64,-40 -89,-68 -25,-28 -44,-60 -57,-95 -13,-36 -20,-73 -20,-111 2,-46 16,-91 41,-133 25,-42 59,-76 102,-102 43,-26 91,-39 143,-39 53,0 100,13 142,39 42,26 75,60 99,101 24,41 38,83 42,125 0,40 -7,78 -20,116 -13,37 -32,71 -57,101 -25,30 -55,53 -89,70 -35,17 -72,26 -112,26l-11 0zm2 -408c-28,2 -53,14 -73,35 -20,22 -31,49 -32,83 0,36 12,65 34,85 23,21 49,31 78,31 19,0 37,-5 53,-16 16,-10 29,-25 39,-44 10,-19 14,-40 14,-64 -1,-24 -8,-44 -20,-61 -12,-17 -27,-29 -44,-37 -17,-8 -33,-12 -49,-12z"/>
  <path id="2" class="fil0" d="M1950 1879l-78 0c-38,0 -66,11 -84,32 -19,21 -28,48 -28,82 0,34 10,61 29,80 19,19 49,29 88,29l74 0 0 164 -114 0c-47,0 -90,-11 -129,-34 -40,-22 -71,-54 -95,-96 -24,-42 -35,-89 -35,-142 0,-53 12,-101 36,-144 24,-43 56,-76 98,-100 41,-24 86,-36 135,-36l104 0 0 163z"/>
  <path id="3" class="fil1" d="M2268 1472l0 409c7,2 12,2 15,2 19,0 36,-9 48,-27 13,-18 23,-40 32,-64 9,-25 18,-51 27,-79l185 0 -46 132c-11,32 -22,56 -34,72 -12,17 -27,27 -46,30 50,14 83,34 99,61 16,27 24,63 24,109l0 149 -176 0 0 -142c0,-26 -7,-46 -20,-57 -13,-12 -29,-18 -48,-18l-60 0 0 216 -181 0 0 -794 181 0z"/>
  <path id="4" class="fil1" d="M2964 2281c-41,-2 -79,-12 -113,-29 -34,-17 -64,-40 -89,-68 -25,-28 -44,-60 -57,-95 -13,-36 -20,-73 -20,-111 2,-46 16,-91 41,-133 25,-42 59,-76 102,-102 43,-26 91,-39 143,-39 53,0 100,13 142,39 42,26 75,60 99,101 24,41 38,83 42,125 0,40 -7,78 -20,116 -13,37 -32,71 -57,101 -25,30 -55,53 -89,70 -35,17 -72,26 -112,26l-11 0zm2 -408c-28,2 -53,14 -73,35 -20,22 -31,49 -32,83 0,36 12,65 34,85 23,21 49,31 78,31 19,0 37,-5 53,-16 16,-10 29,-25 39,-44 10,-19 14,-40 14,-64 -1,-24 -8,-44 -20,-61 -12,-17 -27,-29 -44,-37 -17,-8 -33,-12 -49,-12z"/>
  <path id="5" class="fil1" d="M3483 1459c33,0 60,10 80,30 20,20 30,43 30,70 0,28 -9,53 -27,73 -18,21 -44,32 -79,33 -28,0 -52,-10 -72,-30 -20,-20 -31,-43 -32,-70 1,-1 2,-2 2,-3 0,-1 1,-2 1,-2 1,-25 11,-48 29,-69 18,-21 41,-32 68,-33zm97 257l0 551 -179 0 0 -551 179 0z"/>
  <path id="6" class="fil1" d="M3915 2267l-172 0 0 -323c0,-72 21,-130 64,-174 43,-44 101,-67 175,-70 49,0 92,12 127,35 36,24 63,54 80,91 18,37 27,74 27,111l0 330 -175 0 0 -314c0,-25 -6,-45 -19,-59 -13,-14 -29,-22 -47,-22 -17,0 -31,7 -43,21 -12,14 -18,33 -18,57l0 316z"/>
  <path class="fil2" d="M2075 980l82 45c3,2 5,2 7,4 3,2 5,3 8,4 3,2 5,2 7,4l14 8 15 8c26,16 62,33 89,49 12,7 42,22 52,28l2 2c3,1 7,4 11,6 14,7 15,8 31,15 45,19 107,19 151,0 3,-1 2,-2 6,-2l2 -1 2 -1 2 -1 1 -1 1 0 1 -1 1 0 1 -1 3 -2 1 -1 1 0 1 -1 1 0 1 -1 2 -1 1 -1 3 -2 1 -1 2 -1 1 -1 2 -1 1 -1c2,-1 3,-2 5,-3l1 -1 3 -2 1 -1 3 -2 1 -1 5 -4 1 -1c6,-4 13,-13 17,-17 1,-1 2,-2 3,-3l18 -25c2,-3 3,-6 5,-9 8,-16 15,-32 18,-51 1,-8 3,-15 3,-24l0 0 0 0 0 0c0,-7 0,-14 0,-21l0 0 0 0 0 0 0 0 0 0 0 0 0 0 0 0 0 0 0 0 0 0 0 0 0 0 -1 -1 0 -7 -1 -1c0,-5 -1,-5 -1,-9l-1 -1 0 -3 -1 -1 0 -2 -1 -1 0 -2 -1 -1 0 -3 -1 -1 -1 -5 -1 -1 0 -2 -1 -1 0 -2 -1 -1 0 -2 -1 -1 -2 -6 -1 -1c-1,-3 -1,-2 -2,-5l-1 -1 -8 -16 -1 -1 0 -1 -1 -1c-1,-2 -2,-4 -3,-6l-1 -1 -1 -2 -1 -1 -1 -2 -1 -1c-1,-1 -2,-2 -3,-4 -1,-2 -2,-3 -3,-4l-1 -1c-1,-2 -3,-4 -5,-6 -3,-2 -3,-4 -6,-6l-15 -14c-1,-1 -2,-2 -3,-3 -2,-1 -2,-1 -3,-3 -2,-1 -2,-1 -3,-3l-106 -60c-3,-2 -5,-3 -8,-4l-77 -42c-17,-10 -51,-28 -69,-38l-15 -8c-2,-1 -2,-1 -4,-2 -2,-1 -2,-1 -4,-2l-39 -21c-3,-2 -5,-2 -7,-4l-47 -26c-2,-1 -5,-3 -8,-4 -1,-1 -2,-1 -3,-2l-43 -24c-3,-2 -5,-3 -8,-4 -2,-1 -2,-1 -4,-2l-4 -2c-5,3 -9,5 -15,8 -3,2 -5,3 -7,4l-96 53c4,1 26,14 30,16l143 79c3,2 6,4 10,5l20 11c18,10 45,24 61,34 3,2 6,4 10,5 2,1 3,2 5,3l45 25c2,1 1,0 1,1l111 61c4,2 35,19 36,21l2 1 2 1 1 0 1 1 5 2 1 1c2,1 3,1 4,2l1 1c3,2 4,3 7,6 2,2 4,4 7,6 15,16 19,37 19,58l-1 1 0 4 -1 1c0,4 -1,3 -1,6l-1 1c0,2 0,2 -1,4l-1 1 -1 3 -1 1c-3,11 -19,27 -31,33 -5,3 -9,5 -15,7 -17,6 -38,5 -56,-1l-127 -70c-2,-1 -6,-3 -8,-4l-103 -57c-4,-2 -3,-1 -7,-4 -4,-1 -7,-4 -10,-5 -4,-2 -7,-3 -10,-5l-137 -76c-21,-12 -45,-24 -66,-37 -15,-8 -36,-19 -50,-28 -4,-2 -7,-4 -11,-6 -4,-2 -6,-4 -10,-6l-20 -11c-2,-1 -3,-2 -5,-3 -1,-1 -2,-1 -3,-1l-3 -2c-5,1 -35,21 -64,29 -37,9 -74,10 -111,-1 -4,-1 -8,-2 -12,-4 -2,-1 -3,-1 -6,-2 -3,-1 -3,-2 -6,-2l60 34c1,1 2,1 3,2l64 35c2,1 4,2 6,3l64 35c3,1 4,2 7,4l203 113z"/>
  <path class="fil3" d="M1688 631l-1 -1 -2 -2 -1 -1 -1 -2 -1 -1 -1 -2 -1 -1 0 -1 -1 -1c-1,-2 -2,-3 -3,-6l-1 -1 0 -1 -1 -1 0 -2 -1 -1c0,-2 -1,-2 -1,-4l-1 -1c0,-3 -1,-2 -1,-6l-1 -1 0 -4 -1 -1c0,-11 0,-18 2,-27 6,-22 21,-39 42,-50l1 -1 1 0 1 -1 1 0 2 -1c1,-2 6,-4 9,-6 4,-2 6,-4 9,-5 3,-2 6,-3 10,-5 3,-2 6,-3 9,-5l111 -61c4,-3 36,-20 43,-24 2,-1 3,-2 5,-3 2,-1 3,-2 5,-3 24,-13 48,-27 72,-40 4,-2 7,-3 10,-5l214 -118c29,-16 58,-31 87,-48l107 -59c3,-2 6,-3 9,-5 10,-6 20,-11 32,-13 9,-2 19,-2 28,0 10,2 20,5 28,10 25,14 43,44 37,74 -2,8 -4,15 -7,23 -9,21 -29,32 -48,42l-39 21c-4,2 -6,3 -9,5 -23,12 -45,25 -68,38 -15,8 -29,17 -44,24l-24 13c-4,2 -6,4 -10,6 -24,12 -48,27 -72,40 -2,1 -3,1 -5,3 -3,2 -6,3 -9,5l-131 72c-7,4 -51,29 -55,30l-88 49c-4,2 -27,15 -30,16 0,0 -1,0 0,0 0,0 0,0 0,0l-24 14c-12,7 -27,14 -39,21l-39 21c-2,1 -4,2 -6,3 -17,10 -34,17 -56,15 -18,-2 -43,-12 -53,-27zm-134 -42l0 -22 0 -1 1 -1 0 -7 1 -1 0 -4 1 -1 0 -4 1 -1 0 -3 1 -1 0 -3 1 -1 0 -2 1 -1 0 -2 1 -1 1 -5 1 -1 0 -2 1 -1 0 -2 1 -1 0 -2 1 -1 2 -6 1 -1c1,-3 1,-2 2,-5l1 -1 0 -1 1 -1 6 -13 1 -1 0 -1 1 -1 0 -1 1 -1 1 -2 1 -1 2 -3 1 -1 1 -2 1 -1 1 -2 1 -1 1 -2 1 -1 2 -2 1 -1 2 -2 1 -1 3 -3 1 -1 4 -5 1 -1 15 -14 1 -1 5 -4 1 -1 4 -3 1 -1c4,-3 8,-6 12,-8l208 -115c13,-8 26,-14 39,-21 5,-3 9,-5 13,-7l26 -14c2,-1 4,-2 7,-4l45 -25c4,-3 8,-4 13,-7l49 -27c2,-1 1,-1 3,-2 5,-3 9,-5 13,-7l75 -41c2,-1 1,-1 3,-2l16 -9c1,-1 2,-1 3,-2l100 -55c2,-1 2,-1 3,-2 1,-1 2,-1 3,-2l94 -52c28,-16 56,-29 90,-31 3,0 8,-1 12,-1l26 0 1 0c44,7 66,13 103,39 11,8 23,18 31,29 15,19 29,40 36,63 5,17 8,33 8,50l0 13c-1,38 -15,74 -40,106 -9,11 -17,19 -28,28 -1,1 -2,2 -3,3 -2,1 -1,1 -3,2l-8 6c-2,2 -4,3 -6,4 -2,1 -4,2 -6,3l-13 7c-3,1 -4,2 -7,4l-123 68c-9,5 -17,9 -26,14 -1,1 -2,1 -3,2l-152 84c-2,1 -2,1 -3,2 -1,1 -2,1 -3,2l-45 25c-2,1 -4,2 -7,4 -2,1 -4,2 -7,4l-35 20c-1,0 -1,0 -2,1l-1 1c-5,3 -9,5 -15,8 -3,2 -5,3 -7,4l-96 53c-4,1 -74,41 -84,46 -2,1 -3,2 -5,3l-20 11c-4,2 -6,3 -9,5l-20 11c-5,3 -15,7 -19,11 -5,1 -35,21 -64,29 -37,9 -74,10 -111,-1 -4,-1 -8,-2 -12,-4 -2,-1 -3,-1 -6,-2 -3,-1 -3,-2 -6,-2l-2 -1 -2 -1 -1 -1 -1 0 -1 -1 -1 0 -1 -1 -1 0 -1 -1c-2,-1 -5,-3 -7,-3l-1 -1 -11 -7c-2,-1 -3,-2 -5,-4 -12,-7 -24,-19 -33,-29l-8 -9c-14,-18 -23,-33 -31,-56 -7,-21 -9,-35 -9,-52z"/>
 </g>
</svg>
